<svg xmlns="http://www.w3.org/2000/svg" viewBox="0 0 1280 420" role="img" aria-labelledby="title desc">
  <title id="title">Race Place RC logo</title>
  <desc id="desc">Stylized blue RC cars above green Race Place RC lettering with blue and green swooshes.</desc>
  <defs>
    <style>
      .blue {
        fill: none;
        stroke: #0b3f97;
        stroke-linecap: round;
        stroke-linejoin: round;
      }
      .green-fill {
        fill: #6bd646;
      }
      .text {
        font-family: "Arial Black", Arial, sans-serif;
        font-size: 112px;
        font-style: italic;
        font-weight: 900;
        letter-spacing: 4px;
      }
    </style>
  </defs>

  <path class="blue" stroke-width="18" d="M88 286C35 206 44 122 224 94c154-24 297-6 396 18" />
  <path class="blue" stroke-width="16" d="M222 370c160 46 392 56 560 6" />
  <path class="blue" stroke-width="10" d="M212 214h222" />
  <path class="blue" stroke-width="10" d="M198 242h198" />

  <path fill="none" stroke="#6bd646" stroke-width="18" stroke-linecap="round" d="M148 268C88 164 168 122 348 118c124-2 226 8 338 30" />
  <path fill="none" stroke="#6bd646" stroke-width="14" stroke-linecap="round" d="M266 338c118 36 294 48 470 20" />

  <path class="blue" stroke-width="11" d="M468 164l-54 28h-60" />
  <path class="blue" stroke-width="11" d="M468 164l84-42h144c44 0 86 8 122 24" />
  <path class="blue" stroke-width="11" d="M552 122c112-10 204 0 292 24" />
  <path class="blue" stroke-width="11" d="M464 164l-92 52" />
  <path class="blue" stroke-width="11" d="M454 190l44 18h212l116 28" />
  <path class="blue" stroke-width="11" d="M592 242c66-8 146 2 202 24" />
  <path class="blue" stroke-width="11" d="M786 266c98 0 200-2 270 0 6-16-4-28-26-34" />
  <path class="blue" stroke-width="11" d="M814 146c88-26 180-16 268 14" />
  <path class="blue" stroke-width="11" d="M362 270c10-24 24-36 42-36 16 0 30 8 42 24" />
  <path class="blue" stroke-width="11" d="M638 270c12-24 28-36 48-36 18 0 34 10 48 30" />

  <circle cx="688" cy="82" r="48" fill="none" stroke="#0b3f97" stroke-width="11" />
  <path class="blue" stroke-width="11" d="M660 84c18-20 44-30 78-28" />
  <path class="blue" stroke-width="11" d="M744 104l58-22" />
  <path class="blue" stroke-width="11" d="M808 82c18-10 34-12 48-4" />
  <path class="blue" stroke-width="11" d="M798 146c12-42 40-70 86-84" />
  <circle cx="882" cy="140" r="56" fill="none" stroke="#0b3f97" stroke-width="11" />
  <path class="blue" stroke-width="11" d="M852 142c10-30 28-48 52-52" />
  <path class="blue" stroke-width="11" d="M934 74c28-26 62-38 104-38" />
  <path class="blue" stroke-width="11" d="M1000 64l18-10" />
  <path class="blue" stroke-width="11" d="M1040 86l74 24 132 40-28 28-34 6" />
  <path class="blue" stroke-width="11" d="M1032 98l-30 20" />
  <path class="blue" stroke-width="11" d="M1088 118l-24 38" />
  <path class="blue" stroke-width="11" d="M1122 128l-22 44" />
  <path class="blue" stroke-width="11" d="M972 198l94 30" />
  <circle cx="1142" cy="220" r="40" fill="none" stroke="#0b3f97" stroke-width="11" />
  <path class="blue" stroke-width="11" d="M1112 220c8-22 22-36 40-40" />
  <path class="blue" stroke-width="11" d="M1068 208l116 40" />

  <text x="112" y="362" class="text green-fill">Race Place RC</text>
</svg>
